<svg width="55" height="50" viewBox="0 0 55 50" fill="none" xmlns="http://www.w3.org/2000/svg">
<path d="M44 33.1667H38.5V38.6111H44M44 22.2778H38.5V27.7222H44M49.5 44.0556H27.5V38.6111H33V33.1667H27.5V27.7222H33V22.2778H27.5V16.8333H49.5M22 11.3889H16.5V5.94444H22M22 22.2778H16.5V16.8333H22M22 33.1667H16.5V27.7222H22M22 44.0556H16.5V38.6111H22M11 11.3889H5.5V5.94444H11M11 22.2778H5.5V16.8333H11M11 33.1667H5.5V27.7222H11M11 44.0556H5.5V38.6111H11M27.5 11.3889V0.5H0V49.5H55V11.3889H27.5Z" fill="#800947"/>
</svg>
