<svg width="69" height="68" viewBox="0 0 69 68" fill="none" xmlns="http://www.w3.org/2000/svg">
<path d="M47.7495 0.000177911C35.9821 0.000177911 26.4991 9.34571 26.4991 20.9426C26.4991 21.5577 26.5974 22.3902 26.6665 23.152L3.92061 45.5656C2.67816 46.7821 1.69213 48.2288 1.01926 49.8223C0.346402 51.4159 0 53.1249 0 54.8509C0 56.5769 0.346402 58.2859 1.01926 59.8795C1.69213 61.473 2.67816 62.9197 3.92061 64.1362C5.15501 65.3607 6.62297 66.3324 8.23997 66.9955C9.85697 67.6586 11.5911 68 13.3425 68C15.0939 68 16.828 67.6586 18.445 66.9955C20.062 66.3324 21.53 65.3607 22.7644 64.1362L45.5076 41.72C46.2779 41.7881 47.1279 41.8849 47.7495 41.8849C59.5169 41.8849 68.9998 32.5394 68.9998 20.9426C69.0135 17.5682 68.1561 14.246 66.5082 11.2881L64.8481 8.26195L62.3591 10.7174L50.9025 21.9216L46.7534 17.8326L58.1223 6.54467L60.6192 4.08918L57.5459 2.45305C54.5443 0.829992 51.1732 -0.0140895 47.7495 0.000177911ZM47.7495 5.23577C49.0404 5.23577 50.002 5.78551 51.1495 6.05514L41.1087 15.9504L39.1962 17.8352L41.1087 19.6337L49.0776 27.487L50.9052 29.3719L52.8124 27.487L62.8585 17.5918C63.1321 18.7227 63.6872 19.6703 63.6872 20.9426C63.6872 29.7645 56.7012 36.6493 47.7495 36.6493C46.687 36.6493 45.8369 36.6493 45.1729 36.4844L43.765 36.076L42.6866 37.1415L19.027 60.4582C15.7597 63.6781 10.9253 63.6781 7.65802 60.4582L7.57302 60.3744C4.38546 57.1545 4.41203 52.4425 7.65271 49.2488L31.3123 25.9347L32.3934 24.8719L31.9737 23.4844C31.8144 22.83 31.8091 21.9923 31.8091 20.9452C31.8091 12.1232 38.7951 5.23839 47.7468 5.23839L47.7495 5.23577Z" fill="#800947"/>
</svg>
