<svg width="687" height="753" viewBox="0 0 687 753" fill="none" xmlns="http://www.w3.org/2000/svg">
<path d="M257.055 0.955933L117.654 15.455L0.555298 166.009V249.653L89.7725 347.793L192.374 326.604L270.441 342.216L253.713 402.438L307.242 499.463L280.478 567.491L343.66 752.044L428.803 738.121L506.87 650.019L513.56 588.68L563.745 550.763L553.707 440.355L686.445 270.461L603.892 281.994L477.872 62.2946L279.36 48.9118L257.055 0.955933ZM657.753 508.763L634.884 541.887L613.594 542.674C594.779 581.293 593.59 603.044 591.511 648.344L619.113 655.443L653.812 572.639L657.753 508.763Z" fill="url(#paint0_linear_13_273)" fill-opacity="0.5"/>
<defs>
<linearGradient id="paint0_linear_13_273" x1="343.5" y1="0.955933" x2="343.5" y2="752.044" gradientUnits="userSpaceOnUse">
<stop stop-color="#800947"/>
<stop offset="1" stop-color="#03346E"/>
</linearGradient>
</defs>
</svg>
