<svg width="70" height="70" viewBox="0 0 70 70" fill="none" xmlns="http://www.w3.org/2000/svg">
<path d="M67.3666 24.0333C71.5333 19.8666 69.6333 15 67.3666 12.6333L57.3666 2.6333C53.1666 -1.53337 48.3333 0.366634 45.9666 2.6333L40.3 8.3333H31.6666C25.3333 8.3333 21.6666 11.6666 19.8 15.5L4.99997 30.3V43.6333L2.6333 45.9666C-1.53337 50.1666 0.366634 55 2.6333 57.3666L12.6333 67.3666C14.4333 69.1666 16.3666 69.8333 18.2 69.8333C20.5666 69.8333 22.7333 68.6666 24.0333 67.3666L33.0333 58.3333H45C50.6666 58.3333 53.5333 54.8 54.5666 51.3333C58.3333 50.3333 60.4 47.4666 61.2333 44.6666C66.4 43.3333 68.3333 38.4333 68.3333 35V25H66.3666L67.3666 24.0333ZM61.6666 35C61.6666 36.5 61.0333 38.3333 58.3333 38.3333H55V41.6666C55 43.1666 54.3666 45 51.6666 45H48.3333V48.3333C48.3333 49.8333 47.7 51.6666 45 51.6666H30.3L19.3666 62.6C18.3333 63.5666 17.7333 63 17.3666 62.6333L7.39997 52.7C6.4333 51.6666 6.99997 51.0666 7.36663 50.7L11.6666 46.3666V33.0333L18.3333 26.3666V31.6666C18.3333 35.7 21 41.6666 28.3333 41.6666C35.6666 41.6666 38.3333 35.7 38.3333 31.6666H61.6666V35ZM62.6333 19.3L56.9666 25H31.6666V31.6666C31.6666 33.1666 31.0333 35 28.3333 35C25.6333 35 25 33.1666 25 31.6666V21.6666C25 20.1333 25.5666 15 31.6666 15H43.0333L50.6333 7.39997C51.6666 6.4333 52.2666 6.99997 52.6333 7.36663L62.6 17.3C63.5666 18.3333 63 18.9333 62.6333 19.3Z" fill="white"/>
</svg>
