<svg width="53" height="67" viewBox="0 0 53 67" fill="none" xmlns="http://www.w3.org/2000/svg">
<path d="M18.9434 67V62.2156H33.1264V67H18.9434ZM52.026 26.3328C52.0289 30.2142 51.1804 34.0477 49.5417 37.5567C47.903 41.0656 45.515 44.1624 42.5502 46.6234C39.7193 48.9868 37.8477 52.3311 37.8477 56.0486V57.4313H14.2173V56.3596C14.2173 52.7713 12.7853 49.2308 9.99215 47.0157C6.22026 44.029 3.33791 40.0444 1.6639 35.5025C-0.0101116 30.9606 -0.410545 26.0385 0.50689 21.2805C2.37842 11.0803 10.3939 2.73154 20.4274 0.612065C24.227 -0.231884 28.1651 -0.202725 31.9521 0.697396C35.7391 1.59752 39.2786 3.3457 42.3101 5.81332C45.3417 8.28095 47.7881 11.4052 49.4696 14.9563C51.151 18.5074 52.0245 22.3949 52.026 26.3328ZM11.8542 28.725C11.8542 18.8357 17.4594 11.9797 26.0325 11.9797V7.19536C14.6284 7.19536 7.12814 16.3718 7.12814 28.725H11.8542Z" fill="white"/>
</svg>
