<svg width="64" height="63" viewBox="0 0 64 63" fill="none" xmlns="http://www.w3.org/2000/svg">
<path d="M53.4 0.323287L54.6866 0.509954C56.6866 0.82662 58.9266 1.35662 60.3033 2.73329C61.68 4.10995 62.2133 6.35329 62.53 8.35329L62.7166 9.63662C63.1366 12.67 63.2466 16.6466 62.53 21.06C61.1166 29.77 56.48 40.16 44.8366 48.21C44.7857 48.8052 44.7668 49.4027 44.78 50L44.8366 51.81C44.87 53.0166 44.85 54.22 44.5166 55.3766C43.8833 57.5766 41.6266 59.0266 39.5166 60.0666L38.4833 60.5566L37.15 61.1433L36.24 61.51C33.8833 62.41 31.04 63.04 29.18 61.1766C28.3366 60.3333 27.9466 59.1866 27.6333 58.04L27.48 57.4666C26.9466 55.4433 26.3433 53.4333 25.59 51.4866C25.382 51.7395 25.1617 51.982 24.93 52.2133C23.1133 54.0266 20.65 54.94 18.1866 55.6466L16.55 56.0966L14.9166 56.53L13.3233 56.93L11.8833 57.2633L10.16 57.63L9.08331 57.84C8.54634 57.9394 7.99325 57.9067 7.47173 57.7447C6.95022 57.5827 6.47593 57.2963 6.08978 56.9101C5.70364 56.524 5.41722 56.0497 5.25523 55.5282C5.09325 55.0067 5.06055 54.4536 5.15998 53.9166L5.52998 52.0799L5.95998 50.1533L6.37331 48.4533L7.12331 45.6366C7.86664 42.9033 8.76998 40.0866 10.79 38.07L11.12 37.7533L8.57664 36.84L6.01998 35.96C4.52331 35.4666 2.94998 34.9466 1.86331 33.86C-0.123357 31.8733 0.719977 28.7733 1.70998 26.3366L2.26331 25.0466L2.71998 24.0433C3.77664 21.7966 5.27664 19.21 7.66331 18.5233C8.81998 18.19 10.02 18.17 11.23 18.2L13.04 18.26C13.64 18.2755 14.2366 18.2566 14.83 18.2033C22.8766 6.55995 33.27 1.92329 41.98 0.509954C45.7569 -0.112361 49.6048 -0.175258 53.4 0.323287ZM43.0466 7.08995C35.72 8.27995 26.8166 12.2033 19.87 22.6533C19.0266 23.92 17.6033 24.5233 16.1533 24.7533C15.3333 24.8866 14.5066 24.92 13.6766 24.92L11.1866 24.8833C10.7733 24.8811 10.3589 24.8877 9.94331 24.9033C8.92998 26.25 8.22331 27.85 7.69331 29.44L12.6933 31.2566L14.75 32.0333C18.51 33.5066 22.15 35.29 24.95 38.09C29.6666 42.8066 32.0633 48.9766 33.7966 55.28C35.3166 54.7466 36.8433 54.0666 38.1366 53.0966L38.1566 51.8533L38.12 49.3666C38.12 48.54 38.1533 47.7133 38.2866 46.8866C38.5133 45.4366 39.12 44.0133 40.3866 43.17C50.8366 36.2233 54.76 27.32 55.95 19.9933C56.55 16.2933 56.45 12.9866 56.1133 10.55C55.9837 9.53909 55.7685 8.54106 55.47 7.56662C54.4954 7.26923 53.4974 7.05513 52.4866 6.92662C49.3488 6.51998 46.1682 6.5728 43.0466 7.08995ZM15.5 42.7833C14.3333 44.1933 13.79 46.0433 13.3533 47.8766L12.9933 49.4366L12.81 50.19L15.1233 49.6466C16.9566 49.2133 18.81 48.6633 20.2166 47.4966C20.8417 46.8711 21.1926 46.023 21.1923 45.1388C21.192 44.2545 20.8404 43.4066 20.215 42.7816C19.5895 42.1566 18.7414 41.8056 17.8571 41.8059C16.9729 41.8063 16.125 42.1578 15.5 42.7833ZM34.3566 19.2166C34.9756 18.5974 35.7105 18.1062 36.5193 17.771C37.3281 17.4359 38.195 17.2633 39.0705 17.2631C39.946 17.263 40.8129 17.4353 41.6218 17.7701C42.4308 18.105 43.1658 18.596 43.785 19.215C44.4042 19.8339 44.8954 20.5688 45.2305 21.3776C45.5657 22.1864 45.7383 23.0533 45.7385 23.9288C45.7386 24.8043 45.5663 25.6712 45.2314 26.4802C44.8966 27.2891 44.4056 28.0241 43.7866 28.6433C42.5361 29.8938 40.8401 30.5963 39.0716 30.5963C37.3032 30.5963 35.6071 29.8938 34.3566 28.6433C33.1061 27.3928 32.4036 25.6968 32.4036 23.9283C32.4036 22.1598 33.1061 20.4638 34.3566 19.2133V19.2166Z" fill="white"/>
</svg>
